<svg width="25" height="24" viewBox="0 0 25 24" fill="none" xmlns="http://www.w3.org/2000/svg">
<g id="Vector">
<path id="Vector_2" d="M12.5 0C5.89999 0 0.5 5.40964 0.5 12.0723C0.5 18.0964 4.89199 23.0964 10.628 24V15.5663H7.57999V12.0723H10.628V9.40964C10.628 6.38554 12.416 4.72289 15.164 4.72289C16.472 4.72289 17.84 4.95181 17.84 4.95181V7.92771H16.328C14.84 7.92771 14.372 8.85542 14.372 9.80723V12.0723H17.708L17.168 15.5663H14.372V24C17.1997 23.5516 19.7746 22.103 21.6319 19.9157C23.4892 17.7284 24.5064 14.9466 24.5 12.0723C24.5 5.40964 19.1 0 12.5 0Z" fill="white"/>
</g>
</svg>
